<svg width="44.236" height="44.236" xmlns="http://www.w3.org/2000/svg">

 <g>
  <title>background</title>
  <rect fill="none" id="canvas_background" height="402" width="582" y="-1" x="-1"/>
 </g>
 <g>
  <title>Layer 1</title>
  <g transform="rotate(-180 22.118000030517578,22.118000030517578) " id="svg_1">
   <g id="svg_2">
    <path id="svg_3" fill="#FFFFFF" d="m22.118,44.236c-12.196,0 -22.118,-9.922 -22.118,-22.118s9.922,-22.118 22.118,-22.118s22.118,9.922 22.118,22.118s-9.922,22.118 -22.118,22.118zm0,-42.736c-11.368,0 -20.618,9.249 -20.618,20.618c0,11.368 9.25,20.618 20.618,20.618c11.37,0 20.618,-9.25 20.618,-20.618c0,-11.369 -9.248,-20.618 -20.618,-20.618z"/>
    <path id="svg_4" fill="#FFFFFF" d="m19.341,29.884c-0.192,0 -0.384,-0.073 -0.53,-0.22c-0.293,-0.292 -0.293,-0.768 0,-1.061l6.796,-6.804l-6.796,-6.803c-0.292,-0.293 -0.292,-0.769 0,-1.061c0.293,-0.293 0.768,-0.293 1.061,0l7.325,7.333c0.293,0.293 0.293,0.768 0,1.061l-7.325,7.333c-0.147,0.149 -0.339,0.222 -0.531,0.222z"/>
   </g>
  </g>
  <g id="svg_5"/>
  <g id="svg_6"/>
  <g id="svg_7"/>
  <g id="svg_8"/>
  <g id="svg_9"/>
  <g id="svg_10"/>
  <g id="svg_11"/>
  <g id="svg_12"/>
  <g id="svg_13"/>
  <g id="svg_14"/>
  <g id="svg_15"/>
  <g id="svg_16"/>
  <g id="svg_17"/>
  <g id="svg_18"/>
  <g id="svg_19"/>
 </g>
</svg>